<svg width="70" height="70" viewBox="0 0 70 70" fill="none" xmlns="http://www.w3.org/2000/svg">
<path d="M55.7083 26.5417C55.7083 23.8605 55.1802 21.2056 54.1542 18.7285C53.1282 16.2515 51.6243 14.0008 49.7284 12.1049C47.8326 10.209 45.5819 8.70516 43.1048 7.67913C40.6277 6.65309 37.9728 6.125 35.2917 6.125C32.6105 6.125 29.9556 6.65309 27.4785 7.67913C25.0015 8.70516 22.7508 10.209 20.8549 12.1049C18.959 14.0008 17.4552 16.2515 16.4291 18.7285C15.4031 21.2056 14.875 23.8605 14.875 26.5417C14.875 30.5871 16.0679 34.3496 18.0979 37.5229H18.0746L35.2917 64.4583L52.5088 37.5229H52.4883C54.5909 34.2463 55.7085 30.4349 55.7083 26.5417ZM35.2917 35.2917C32.971 35.2917 30.7454 34.3698 29.1045 32.7289C27.4635 31.0879 26.5417 28.8623 26.5417 26.5417C26.5417 24.221 27.4635 21.9954 29.1045 20.3545C30.7454 18.7135 32.971 17.7917 35.2917 17.7917C37.6123 17.7917 39.8379 18.7135 41.4789 20.3545C43.1198 21.9954 44.0417 24.221 44.0417 26.5417C44.0417 28.8623 43.1198 31.0879 41.4789 32.7289C39.8379 34.3698 37.6123 35.2917 35.2917 35.2917Z" fill="#6D6226"/>
<circle cx="35.4375" cy="26.6875" r="15.3125" fill="white"/>
<path d="M35 19.25C35.9283 19.25 36.8185 19.6187 37.4749 20.2751C38.1313 20.9315 38.5 21.8217 38.5 22.75C38.5 23.6783 38.1313 24.5685 37.4749 25.2249C36.8185 25.8813 35.9283 26.25 35 26.25C34.0717 26.25 33.1815 25.8813 32.5251 25.2249C31.8687 24.5685 31.5 23.6783 31.5 22.75C31.5 21.8217 31.8687 20.9315 32.5251 20.2751C33.1815 19.6187 34.0717 19.25 35 19.25M35 28C38.8675 28 42 29.5662 42 31.5V33.25H28V31.5C28 29.5662 31.1325 28 35 28Z" fill="#6D6226"/>
</svg>
