<svg width="15" height="15" viewBox="0 0 15 15" fill="none" xmlns="http://www.w3.org/2000/svg">
<path d="M10.1788 13.081C5.62528 13.081 1.91992 9.37563 1.91992 4.82206C1.92015 4.00767 2.21719 3.22129 2.75542 2.61012C3.29366 1.99895 4.0362 1.60491 4.84403 1.50175C5.08403 1.47173 5.32727 1.5209 5.53677 1.64177C5.74628 1.76263 5.91059 1.9486 6.00474 2.17139L7.12639 4.783C7.20046 4.95234 7.23108 5.13749 7.21549 5.32166C7.1999 5.50584 7.13859 5.6832 7.03711 5.83769L6.17773 7.14349C6.55844 7.86295 7.14787 8.45043 7.86858 8.82876L9.15764 7.96938C9.31269 7.86699 9.49074 7.80472 9.67581 7.78816C9.86087 7.7716 10.0472 7.80127 10.2179 7.87452L12.8295 8.99617C13.0523 9.09032 13.2383 9.25463 13.3591 9.46414C13.48 9.67364 13.5292 9.91688 13.4992 10.1569C13.396 10.9647 13.002 11.7072 12.3908 12.2455C11.7796 12.7837 10.9932 13.0808 10.1788 13.081V13.081ZM4.84403 2.85778C4.39514 2.95473 3.99301 3.20255 3.70464 3.55997C3.41627 3.91739 3.25906 4.36282 3.25921 4.82206C3.26069 6.65681 3.99019 8.41599 5.28756 9.71336C6.58492 11.0107 8.3441 11.7402 10.1788 11.7417C10.6381 11.7418 11.0835 11.5846 11.4409 11.2963C11.7984 11.0079 12.0462 10.6058 12.1431 10.1569L9.79938 9.15242L8.50474 10.0174C8.34372 10.1239 8.15792 10.1871 7.96533 10.2008C7.77274 10.2145 7.57988 10.1782 7.40541 10.0955C6.32224 9.57093 5.44601 8.69863 4.91657 7.61782C4.83143 7.44425 4.79332 7.25138 4.80605 7.05847C4.81878 6.86556 4.88191 6.67937 4.98912 6.51849L5.84849 5.20153L4.84403 2.85778Z" fill="#6C4E25"/>
</svg>
