<svg width="50" height="50" viewBox="0 0 50 50" fill="none" xmlns="http://www.w3.org/2000/svg">
<path d="M25.5556 25.2777C26.7014 25.2777 27.6827 24.8693 28.4993 24.0527C29.3146 23.2374 29.7222 22.2568 29.7222 21.111C29.7222 19.9652 29.3146 18.9839 28.4993 18.1672C27.6827 17.352 26.7014 16.9443 25.5556 16.9443C24.4097 16.9443 23.4292 17.352 22.6139 18.1672C21.7972 18.9839 21.3889 19.9652 21.3889 21.111C21.3889 22.2568 21.7972 23.2374 22.6139 24.0527C23.4292 24.8693 24.4097 25.2777 25.5556 25.2777ZM25.5556 45.3297C25.2778 45.3297 25 45.2777 24.7222 45.1735C24.4445 45.0693 24.2014 44.9304 23.9931 44.7568C18.9236 40.2777 15.1389 36.12 12.6389 32.2839C10.1389 28.4464 8.88892 24.861 8.88892 21.5277C8.88892 16.3193 10.5646 12.17 13.916 9.07975C17.266 5.98947 21.1459 4.44434 25.5556 4.44434C29.9653 4.44434 33.8452 5.98947 37.1952 9.07975C40.5466 12.17 42.2222 16.3193 42.2222 21.5277C42.2222 24.861 40.9722 28.4464 38.4722 32.2839C35.9722 36.12 32.1875 40.2777 27.1181 44.7568C26.9097 44.9304 26.6667 45.0693 26.3889 45.1735C26.1111 45.2777 25.8334 45.3297 25.5556 45.3297Z" fill="#9D743D"/>
<circle cx="25.5555" cy="21.1111" r="12.2222" fill="white"/>
<path fill-rule="evenodd" clip-rule="evenodd" d="M28.9487 16.9894L28.9487 22.8702L25.793 24.997L22.5746 22.632L22.571 17.0666L25.7737 19.4914L28.9487 16.9894ZM21 23.7371L25.8318 27.1301L30.5997 23.6282L30.5997 14.0239L25.8345 17.6237L21 14.0001L21 23.7371Z" fill="#9D743D"/>
</svg>
